<svg width="17" height="20" viewBox="0 0 17 20" fill="none" xmlns="http://www.w3.org/2000/svg">
<path d="M14.1643 19.1976C13.0658 20.253 11.8665 20.0864 10.712 19.5864C9.49031 19.0754 8.36946 19.0531 7.08049 19.5864C5.46647 20.2752 4.61462 20.0752 3.65069 19.1976C-1.81905 13.6094 -1.01204 5.09936 5.19746 4.78828C6.71061 4.86605 7.76421 5.6104 8.64968 5.67706C9.97228 5.41043 11.2388 4.64386 12.6511 4.74385C14.3436 4.87716 15.6214 5.54374 16.462 6.74359C12.9649 8.82111 13.7944 13.3872 17 14.6648C16.3611 16.3313 15.5317 17.9866 14.153 19.2087L14.1643 19.1976ZM8.53759 4.72163C8.36947 2.24416 10.3982 0.199975 12.7296 0C13.0546 2.8663 10.1068 4.99937 8.53759 4.72163Z" fill="#8C929C"/>
</svg>
