<svg width="24" height="24" viewBox="0 0 24 24" fill="none" xmlns="http://www.w3.org/2000/svg">
<g filter="url(#filter0_d_1257_19756)">
<path fill-rule="evenodd" clip-rule="evenodd" d="M19.8895 17.5126L15.3095 12.5326L14.7621 12.98C13.9916 13.6221 13.0242 13.9432 12.0547 13.9432C11.0832 13.9432 10.1116 13.6211 9.33684 12.9747L8.72947 12.4884L4.10842 17.5074C3.83474 16.9663 3.66526 16.3558 3.61474 15.7116L7.49368 11.499L3.61263 8.39158C3.66105 7.78105 3.81263 7.22 4.05579 6.72316L10.3358 11.7526C11.32 12.5726 12.7863 12.5716 13.7579 11.7621L19.9368 6.70842C20.1832 7.20632 20.3368 7.76947 20.3863 8.38105L16.5337 11.5316L20.3842 15.719C20.3326 16.3621 20.1632 16.9726 19.8895 17.5126ZM21.9989 15.3232C21.9989 15.3211 22 15.319 22 15.3158V8.78947C22 8.78947 21.9989 8.78632 21.9989 8.78421C21.9989 8.46526 21.9653 8.16 21.9168 7.86105C21.8884 7.66105 21.8495 7.46842 21.8032 7.27684C21.8 7.26105 21.7979 7.24526 21.7947 7.22947L21.7905 7.23263C21.6547 6.67789 21.4558 6.15684 21.1863 5.68737L21.1937 5.68105C21.1811 5.66105 21.1663 5.64211 21.1537 5.62211C21.1032 5.53474 21.0453 5.45368 20.9895 5.37053C20.8558 5.16737 20.7105 4.97579 20.5537 4.79474C20.5063 4.74 20.4632 4.68211 20.4137 4.63053C20.2042 4.40737 19.9758 4.20737 19.7326 4.02526C19.68 3.98737 19.6263 3.95263 19.5737 3.91579C19.3295 3.74737 19.0747 3.59579 18.8032 3.47158C18.7821 3.46211 18.7632 3.45053 18.7432 3.44105C18.4547 3.31368 18.1505 3.22 17.8358 3.14737C17.7653 3.13053 17.6937 3.11684 17.6221 3.10316C17.3053 3.04316 16.98 3.00211 16.6421 3.00105C16.6379 3.00105 16.6347 3 16.6316 3H7.36842C7.36421 3 7.36211 3.00105 7.35789 3.00105C7.00211 3.00211 6.66316 3.04526 6.33263 3.10737C6.28947 3.11579 6.24737 3.12421 6.20526 3.13368C4.71474 3.45368 3.50632 4.37684 2.77474 5.69684L2.79895 5.71579C2.53263 6.18737 2.33474 6.70632 2.2 7.26L2.19053 7.25263C2.18105 7.29474 2.17579 7.34 2.16632 7.38316C2.13474 7.52737 2.10737 7.67368 2.08526 7.82316C2.03579 8.13474 2 8.45368 2 8.78842V15.319C2 15.6726 2.03789 16.0116 2.09474 16.3421C2.13368 16.5884 2.19474 16.8221 2.26 17.0579C2.26842 17.0905 2.27368 17.1263 2.28316 17.1579L2.28737 17.1537C2.56632 18.1105 3.03053 18.979 3.68421 19.6316C4.27579 20.2232 5.00211 20.6274 5.81368 20.8653C5.91368 20.8958 6.01158 20.9284 6.11368 20.9526C6.23895 20.9821 6.36526 21.0063 6.49474 21.0263C6.77368 21.0716 7.05895 21.1032 7.35474 21.1042C7.35895 21.1042 7.36316 21.1053 7.36842 21.1053H16.6316C16.6347 21.1053 16.6389 21.1042 16.6421 21.1042C16.9726 21.1042 17.2895 21.0663 17.5989 21.0126C17.6211 21.0084 17.6442 21.0042 17.6663 21C18.6695 20.8095 19.5505 20.3526 20.2505 19.6821C20.2716 19.6632 20.2947 19.6505 20.3158 19.6316C20.3537 19.5937 20.3811 19.5432 20.4179 19.5042C20.6389 19.2705 20.8463 19.0232 21.0253 18.7484L21.0242 18.7463C21.3295 18.2716 21.5442 17.7284 21.7105 17.16L21.7232 17.1737C21.7463 17.0916 21.7579 17.0032 21.7789 16.92C21.8242 16.739 21.8716 16.5621 21.9011 16.3758C21.96 16.0369 21.9989 15.6895 21.9989 15.3232Z" fill="#C3C6CC"/>
</g>
<defs>
<filter id="filter0_d_1257_19756" x="-0.5" y="0" width="25" height="25.5" filterUnits="userSpaceOnUse" color-interpolation-filters="sRGB">
<feFlood flood-opacity="0" result="BackgroundImageFix"/>
<feColorMatrix in="SourceAlpha" type="matrix" values="0 0 0 0 0 0 0 0 0 0 0 0 0 0 0 0 0 0 127 0" result="hardAlpha"/>
<feMorphology radius="0.5" operator="erode" in="SourceAlpha" result="effect1_dropShadow_1257_19756"/>
<feOffset dy="1"/>
<feGaussianBlur stdDeviation="0.5"/>
<feComposite in2="hardAlpha" operator="out"/>
<feColorMatrix type="matrix" values="0 0 0 0 0 0 0 0 0 0 0 0 0 0 0 0 0 0 0.03 0"/>
<feBlend mode="normal" in2="BackgroundImageFix" result="effect1_dropShadow_1257_19756"/>
<feBlend mode="normal" in="SourceGraphic" in2="effect1_dropShadow_1257_19756" result="shape"/>
</filter>
</defs>
</svg>
