<svg width="20" height="20" viewBox="0 0 20 20" fill="none" xmlns="http://www.w3.org/2000/svg">
<path d="M10 0C4.47738 0 0 4.47738 0 10C0 15.5226 4.47738 20 10 20C15.5226 20 20 15.5226 20 10C20 4.47738 15.5226 0 10 0ZM13.7276 14.1424C12.821 14.9779 11.5852 15.4687 10.1088 15.4687C9.39085 15.4685 8.68002 15.3268 8.01685 15.0519C7.35369 14.7769 6.75118 14.374 6.24371 13.8662C5.73625 13.3584 5.33379 12.7556 5.05929 12.0922C4.78479 11.4288 4.64364 10.7179 4.64389 10C4.64338 9.28177 4.78441 8.57047 5.05892 7.90677C5.33342 7.24306 5.73602 6.63995 6.24371 6.1319C6.7514 5.62386 7.35423 5.22083 8.01774 4.94586C8.68126 4.67089 9.39245 4.52936 10.1107 4.52936C11.5833 4.52936 12.82 5.07122 13.768 5.9538L12.2021 7.52262C11.6343 6.97979 10.9143 6.70452 10.1126 6.70452C8.68816 6.70452 7.48316 7.66699 7.05197 8.95958C6.94322 9.28778 6.88065 9.63811 6.88065 10C6.88065 10.3619 6.94322 10.7122 7.05197 11.0395C7.48316 12.333 8.68816 13.2945 10.1107 13.2945C10.847 13.2945 11.4716 13.1001 11.9605 12.7719C12.2452 12.5853 12.4889 12.3426 12.6765 12.0586C12.8642 11.7746 12.9919 11.4554 13.052 11.1203H10.1107V9.00481H15.2599C15.3247 9.36413 15.3574 9.73693 15.358 10.1232C15.358 11.7902 14.7603 13.1896 13.7276 14.1424Z" fill="#8C929C"/>
</svg>
