<svg width="24" height="24" viewBox="0 0 24 24" fill="none" xmlns="http://www.w3.org/2000/svg">
<g filter="url(#filter0_d_16207_83821)">
<path fill-rule="evenodd" clip-rule="evenodd" d="M7.89784 3C5.19248 3 3 5.19381 3 7.89784V16.1005C3 18.8054 5.19232 20.9993 7.89784 20.9993H14.5856C15.1379 20.9993 15.5856 20.5516 15.5856 19.9993C15.5856 19.447 15.1379 18.9993 14.5856 18.9993H7.89784C6.29754 18.9993 5 17.7014 5 16.1005V7.89784C5 6.29805 6.29738 5 7.89784 5H14.5856C15.1379 5 15.5856 4.55228 15.5856 4C15.5856 3.44772 15.1379 3 14.5856 3H7.89784ZM16.8188 7.68125C16.4141 7.30546 15.7813 7.32891 15.4056 7.73363C15.0298 8.13835 15.0532 8.77108 15.4579 9.14688L17.4537 11L10.621 11.0003C10.0687 11.0003 9.62104 11.4481 9.62107 12.0003C9.62109 12.5526 10.0688 13.0003 10.6211 13.0003L17.4535 13L15.4579 14.853C15.0532 15.2288 15.0298 15.8615 15.4056 16.2662C15.7814 16.671 16.4141 16.6944 16.8188 16.3186L20.6807 12.7327C20.8845 12.5435 21.0003 12.278 21.0003 11.9999C21.0003 11.7218 20.8845 11.4563 20.6807 11.2671L16.8188 7.68125Z" fill="#C3C6CC"/>
</g>
<defs>
<filter id="filter0_d_16207_83821" x="-0.5" y="0" width="25" height="25.5" filterUnits="userSpaceOnUse" color-interpolation-filters="sRGB">
<feFlood flood-opacity="0" result="BackgroundImageFix"/>
<feColorMatrix in="SourceAlpha" type="matrix" values="0 0 0 0 0 0 0 0 0 0 0 0 0 0 0 0 0 0 127 0" result="hardAlpha"/>
<feMorphology radius="0.5" operator="erode" in="SourceAlpha" result="effect1_dropShadow_16207_83821"/>
<feOffset dy="1"/>
<feGaussianBlur stdDeviation="0.5"/>
<feComposite in2="hardAlpha" operator="out"/>
<feColorMatrix type="matrix" values="0 0 0 0 0 0 0 0 0 0 0 0 0 0 0 0 0 0 0.03 0"/>
<feBlend mode="normal" in2="BackgroundImageFix" result="effect1_dropShadow_16207_83821"/>
<feBlend mode="normal" in="SourceGraphic" in2="effect1_dropShadow_16207_83821" result="shape"/>
</filter>
</defs>
</svg>
