<svg width="24" height="24" viewBox="0 0 24 24" fill="none" xmlns="http://www.w3.org/2000/svg">
<g filter="url(#filter0_d_443_15189)">
<path fill-rule="evenodd" clip-rule="evenodd" d="M9.79255 15.2073C9.79017 15.2096 9.78693 15.211 9.78355 15.211C9.78018 15.211 9.77696 15.2123 9.77459 15.2147L4.48221 20.5071C4.32428 20.665 4.12423 20.7387 3.92417 20.7387C3.72412 20.7387 3.51354 20.665 3.36614 20.5071C3.05027 20.2017 3.05027 19.7069 3.36614 19.391L5.5667 17.1904C4.02946 15.7795 2.81863 14.0212 2.03948 12.0628C1.98684 11.9365 1.98684 11.7996 2.03948 11.6732C2.93445 9.46217 4.37692 7.49324 6.2195 5.96655C7.84096 4.62936 9.89412 3.89232 11.9893 3.86074C13.8635 3.89232 15.6956 4.47143 17.2117 5.54539L19.5281 3.22901C19.8335 2.92366 20.3283 2.92366 20.6442 3.22901C20.9495 3.54487 20.9495 4.03974 20.6442 4.34508L15.3835 9.60586C15.3811 9.60824 15.3797 9.61146 15.3797 9.61482C15.3797 9.6182 15.3784 9.62145 15.376 9.62383L14.2215 10.7677L10.9364 14.0528L9.79255 15.2073ZM9.14656 9.00942C8.38847 9.77801 7.96731 10.7888 7.96731 11.8628C7.96731 12.5337 8.13753 13.1972 8.45317 13.7788C8.54779 13.9532 8.78182 13.9753 8.9221 13.835L9.67216 13.085C9.76722 12.9899 9.78972 12.8457 9.74255 12.7198C9.64179 12.4509 9.58878 12.1635 9.58878 11.8628C9.58878 10.9046 10.1468 10.0834 10.947 9.67274C10.994 9.65706 11.0352 9.63555 11.0793 9.61254C11.0944 9.60465 11.1098 9.59658 11.126 9.58851C11.1786 9.56745 11.2418 9.5464 11.305 9.52534C11.3997 9.49376 11.505 9.4727 11.5998 9.46216C11.6524 9.45164 11.7051 9.44111 11.7577 9.44111C11.7998 9.43058 11.8525 9.43058 11.8946 9.43058H11.9683C12.2752 9.43058 12.5889 9.48577 12.8816 9.59058C13.0055 9.63495 13.1461 9.61106 13.2391 9.51797L13.9786 8.7786C14.1202 8.63696 14.096 8.40025 13.9189 8.3067C13.3536 8.00814 12.7144 7.8407 12.0315 7.8407C11.6103 7.8407 11.2102 7.90387 10.8312 8.03022C10.7048 8.06181 10.589 8.10392 10.4626 8.15658C9.97831 8.34609 9.5256 8.63037 9.14656 9.00942Z" fill="#C3C6CC"/>
<path d="M20.0548 8.32463C20.8129 9.34595 21.4551 10.4725 21.9605 11.6623C22.0132 11.7886 22.0132 11.9466 21.9605 12.0729C19.8547 16.9584 16.1274 19.8644 12.0001 19.8644C11.0841 19.8644 10.1575 19.717 9.24145 19.4222C9.07299 19.3695 8.93611 19.2221 8.89399 19.0431C8.85188 18.8641 8.90452 18.6746 9.0414 18.5483L11.5962 15.9935C11.6709 15.9187 11.778 15.8877 11.8827 15.902C14.0731 16.2007 16.3218 13.8139 16.0676 11.6879C16.0554 11.5856 16.0862 11.4818 16.1585 11.4086L19.2546 8.27199C19.3704 8.1667 19.5073 8.10353 19.6652 8.12458C19.8231 8.13511 19.96 8.20882 20.0548 8.32463Z" fill="#C3C6CC"/>
</g>
<defs>
<filter id="filter0_d_443_15189" x="-0.5" y="0" width="25" height="25.5" filterUnits="userSpaceOnUse" color-interpolation-filters="sRGB">
<feFlood flood-opacity="0" result="BackgroundImageFix"/>
<feColorMatrix in="SourceAlpha" type="matrix" values="0 0 0 0 0 0 0 0 0 0 0 0 0 0 0 0 0 0 127 0" result="hardAlpha"/>
<feMorphology radius="0.5" operator="erode" in="SourceAlpha" result="effect1_dropShadow_443_15189"/>
<feOffset dy="1"/>
<feGaussianBlur stdDeviation="0.5"/>
<feComposite in2="hardAlpha" operator="out"/>
<feColorMatrix type="matrix" values="0 0 0 0 0 0 0 0 0 0 0 0 0 0 0 0 0 0 0.03 0"/>
<feBlend mode="normal" in2="BackgroundImageFix" result="effect1_dropShadow_443_15189"/>
<feBlend mode="normal" in="SourceGraphic" in2="effect1_dropShadow_443_15189" result="shape"/>
</filter>
</defs>
</svg>
