<svg width="24" height="24" viewBox="0 0 24 24" fill="none" xmlns="http://www.w3.org/2000/svg">
<g filter="url(#filter0_d_1513_13459)">
<path fill-rule="evenodd" clip-rule="evenodd" d="M15.4859 16.1159C14.9224 16.1159 14.463 15.6575 14.463 15.0928C14.463 14.5302 14.9224 14.0708 15.4859 14.0708C16.0495 14.0708 16.508 14.5302 16.508 15.0928C16.508 15.6575 16.0495 16.1159 15.4859 16.1159ZM12.0019 16.1159C11.4383 16.1159 10.9799 15.6575 10.9799 15.0928C10.9799 14.5302 11.4383 14.0708 12.0019 14.0708C12.5666 14.0708 13.025 14.5302 13.025 15.0928C13.025 15.6575 12.5666 16.1159 12.0019 16.1159ZM8.51706 16.1159C7.95344 16.1159 7.49404 15.6575 7.49404 15.0928C7.49404 14.5302 7.95344 14.0708 8.51706 14.0708C9.08068 14.0708 9.54008 14.5302 9.54008 15.0928C9.54008 15.6575 9.08068 16.1159 8.51706 16.1159ZM8.26105 7.19403C8.29647 5.15811 9.91954 3.54314 11.9575 3.51784H12.004C14.047 3.51784 15.7207 5.16519 15.7459 7.20111V8.82519C15.4424 8.82114 15.1096 8.82013 14.728 8.82013H9.27193C8.8945 8.82013 8.56361 8.82114 8.26105 8.82417V7.19403ZM19.6498 10.8247C19.2987 10.0992 18.7088 9.51226 17.9943 9.1753C17.7708 9.06602 17.532 8.99316 17.2638 8.94054V7.19301C17.2283 4.29295 14.8424 1.99394 11.9382 2.00001C9.07461 2.03644 6.79281 4.3061 6.74322 7.18087V8.93852C6.47507 8.99114 6.23526 9.06298 6.01163 9.17226C5.29117 9.51226 4.70124 10.0992 4.3491 10.8267C4 11.5593 4 12.4063 4 14.0921V16.2474C4 17.9423 4 18.7933 4.3491 19.5097C4.69112 20.2282 5.27902 20.8191 6.01163 21.1773C6.73715 21.5193 7.5841 21.5193 9.27193 21.5193H14.7281C16.4159 21.5193 17.2628 21.5193 17.9943 21.1743C18.7219 20.8191 19.3098 20.2282 19.6498 19.5138C19.9999 18.7933 20 17.9423 20 16.2474V14.0921C20 12.4063 19.9999 11.5593 19.6498 10.8247Z" fill="#C3C6CC"/>
</g>
<defs>
<filter id="filter0_d_1513_13459" x="-0.5" y="0" width="25" height="25.5" filterUnits="userSpaceOnUse" color-interpolation-filters="sRGB">
<feFlood flood-opacity="0" result="BackgroundImageFix"/>
<feColorMatrix in="SourceAlpha" type="matrix" values="0 0 0 0 0 0 0 0 0 0 0 0 0 0 0 0 0 0 127 0" result="hardAlpha"/>
<feMorphology radius="0.5" operator="erode" in="SourceAlpha" result="effect1_dropShadow_1513_13459"/>
<feOffset dy="1"/>
<feGaussianBlur stdDeviation="0.5"/>
<feComposite in2="hardAlpha" operator="out"/>
<feColorMatrix type="matrix" values="0 0 0 0 0 0 0 0 0 0 0 0 0 0 0 0 0 0 0.03 0"/>
<feBlend mode="normal" in2="BackgroundImageFix" result="effect1_dropShadow_1513_13459"/>
<feBlend mode="normal" in="SourceGraphic" in2="effect1_dropShadow_1513_13459" result="shape"/>
</filter>
</defs>
</svg>
