<svg width="18" height="17" viewBox="0 0 18 17" fill="none" xmlns="http://www.w3.org/2000/svg">
<path d="M12.5569 10.906L12.1019 11.359C12.1019 11.359 11.0189 12.435 8.06386 9.49698C5.10886 6.55898 6.19186 5.48298 6.19186 5.48298L6.47786 5.19698C7.18486 4.49498 7.25186 3.36698 6.63486 2.54298L5.37486 0.859979C4.61086 -0.160021 3.13586 -0.29502 2.26086 0.57498L0.690856 2.13498C0.257856 2.56698 -0.032144 3.12498 0.002856 3.74498C0.092856 5.33198 0.810856 8.74498 4.81486 12.727C9.06186 16.949 13.0469 17.117 14.6759 16.965C15.1919 16.917 15.6399 16.655 16.0009 16.295L17.4209 14.883C18.3809 13.93 18.1109 12.295 16.8829 11.628L14.9729 10.589C14.1669 10.152 13.1869 10.28 12.5569 10.906Z" fill="#8C929C"/>
</svg>
