<svg width="24" height="24" viewBox="0 0 24 24" fill="none" xmlns="http://www.w3.org/2000/svg">
<g filter="url(#filter0_d_443_15115)">
<path fill-rule="evenodd" clip-rule="evenodd" d="M19.7151 10.2452L6.95362 3.24962C6.25388 2.86717 5.42571 2.92666 4.79018 3.4111C4.15277 3.89648 3.87136 4.68309 4.0555 5.46404L5.36797 11.0144C5.40841 11.1854 5.56146 11.306 5.73718 11.3053L13.9888 11.2697H13.9916C14.3816 11.2697 14.698 11.5852 14.6999 11.9752C14.7017 12.367 14.3854 12.6843 13.9945 12.6862L5.72694 12.7227C5.55245 12.7234 5.40119 12.8436 5.36102 13.0134L4.0555 18.5334C3.87136 19.3144 4.15277 20.102 4.79018 20.5883C5.14902 20.8612 5.57019 21 5.99419 21C6.31998 21 6.64955 20.9178 6.95362 20.7507L19.7151 13.7552C20.3648 13.3982 20.7529 12.7429 20.7529 11.9997C20.7529 11.2575 20.3648 10.6012 19.7151 10.2452Z" fill="#C3C6CC"/>
</g>
<defs>
<filter id="filter0_d_443_15115" x="-0.5" y="0" width="25" height="25.5" filterUnits="userSpaceOnUse" color-interpolation-filters="sRGB">
<feFlood flood-opacity="0" result="BackgroundImageFix"/>
<feColorMatrix in="SourceAlpha" type="matrix" values="0 0 0 0 0 0 0 0 0 0 0 0 0 0 0 0 0 0 127 0" result="hardAlpha"/>
<feMorphology radius="0.5" operator="erode" in="SourceAlpha" result="effect1_dropShadow_443_15115"/>
<feOffset dy="1"/>
<feGaussianBlur stdDeviation="0.5"/>
<feComposite in2="hardAlpha" operator="out"/>
<feColorMatrix type="matrix" values="0 0 0 0 0 0 0 0 0 0 0 0 0 0 0 0 0 0 0.03 0"/>
<feBlend mode="normal" in2="BackgroundImageFix" result="effect1_dropShadow_443_15115"/>
<feBlend mode="normal" in="SourceGraphic" in2="effect1_dropShadow_443_15115" result="shape"/>
</filter>
</defs>
</svg>
