<svg width="24" height="24" viewBox="0 0 24 24" fill="none" xmlns="http://www.w3.org/2000/svg">
<g filter="url(#filter0_d_1257_18739)">
<path fill-rule="evenodd" clip-rule="evenodd" d="M7.97475 12.0007C7.97475 14.2237 9.78204 16.0321 12.003 16.0321C14.224 16.0321 16.0302 14.2237 16.0302 12.0007C16.0302 9.78292 14.224 7.97983 12.003 7.97983C9.78204 7.97983 7.97475 9.78292 7.97475 12.0007ZM11.9978 4C16.1366 4 19.8596 6.91356 21.9574 11.7933C22.0142 11.9259 22.0142 12.0754 21.9574 12.208C19.8606 17.0857 16.1397 19.9993 12.003 20.0014H11.9967C7.86002 19.9993 4.13912 17.0857 2.04342 12.208C1.98553 12.0754 1.98553 11.9259 2.04342 11.7933C4.14017 6.91356 7.86107 4 11.9978 4ZM9.55365 12.001C9.55365 10.6547 10.6526 9.55898 12.003 9.55898C13.3535 9.55898 14.4514 10.6547 14.4514 12.001C14.4514 13.3536 13.3535 14.4535 12.003 14.4535C10.6526 14.4535 9.55365 13.3536 9.55365 12.001Z" fill="#C3C6CC"/>
</g>
<defs>
<filter id="filter0_d_1257_18739" x="-0.5" y="0" width="25" height="25.5" filterUnits="userSpaceOnUse" color-interpolation-filters="sRGB">
<feFlood flood-opacity="0" result="BackgroundImageFix"/>
<feColorMatrix in="SourceAlpha" type="matrix" values="0 0 0 0 0 0 0 0 0 0 0 0 0 0 0 0 0 0 127 0" result="hardAlpha"/>
<feMorphology radius="0.5" operator="erode" in="SourceAlpha" result="effect1_dropShadow_1257_18739"/>
<feOffset dy="1"/>
<feGaussianBlur stdDeviation="0.5"/>
<feComposite in2="hardAlpha" operator="out"/>
<feColorMatrix type="matrix" values="0 0 0 0 0 0 0 0 0 0 0 0 0 0 0 0 0 0 0.03 0"/>
<feBlend mode="normal" in2="BackgroundImageFix" result="effect1_dropShadow_1257_18739"/>
<feBlend mode="normal" in="SourceGraphic" in2="effect1_dropShadow_1257_18739" result="shape"/>
</filter>
</defs>
</svg>
