<svg width="820" height="801" viewBox="0 0 820 801" fill="none" xmlns="http://www.w3.org/2000/svg">
<path d="M361.708 134.266L361.048 132.676C360.629 131.664 359.824 130.861 358.811 130.44L357.221 129.781C357.202 129.773 357.202 129.745 357.221 129.737L358.796 129.097C359.829 128.676 360.648 127.857 361.067 126.827L361.708 125.252C361.715 125.231 361.744 125.231 361.751 125.252L362.411 126.842C362.83 127.854 363.635 128.657 364.647 129.078L366.238 129.737C366.257 129.745 366.257 129.773 366.238 129.781L364.663 130.421C363.63 130.842 362.811 131.66 362.392 132.691L361.751 134.266C361.744 134.286 361.715 134.286 361.708 134.266Z" fill="white"/>
<path d="M110.701 615.884L110.102 616.483L111.301 617.682L111.9 617.083L110.701 615.884ZM121.194 607.438C121.194 606.97 120.814 606.591 120.346 606.591H112.714C112.246 606.591 111.866 606.97 111.866 607.438C111.866 607.907 112.246 608.286 112.714 608.286H119.498V615.07C119.498 615.538 119.877 615.918 120.346 615.918C120.814 615.918 121.194 615.538 121.194 615.07V607.438ZM111.301 616.483L111.9 617.083L120.945 608.038L120.346 607.438L119.746 606.839L110.701 615.884L111.301 616.483Z" fill="#161616"/>
<path d="M228.098 46.4607L224.896 40.3662C222.862 36.4868 219.362 33.5775 215.178 32.2676L208.605 30.2155C208.527 30.1922 208.517 30.0789 208.589 30.0419L214.632 26.9214C218.596 24.8724 221.562 21.3156 222.858 17.058L224.841 10.5539C224.863 10.4681 224.977 10.4579 225.014 10.5382L228.217 16.6327C230.251 20.5121 233.75 23.4214 237.934 24.7313L244.508 26.7834C244.586 26.8067 244.596 26.92 244.523 26.957L238.48 30.0775C234.517 32.1265 231.551 35.6833 230.255 39.9409L228.272 46.445C228.249 46.5308 228.136 46.541 228.098 46.4607Z" fill="white"/>
<path d="M291.196 187.555L289.691 185.89C288.734 184.83 287.393 184.195 285.965 184.121L283.723 184.006C283.697 184.005 283.684 183.971 283.704 183.953L285.359 182.477C286.444 181.509 287.093 180.145 287.156 178.696L287.255 176.481C287.255 176.452 287.29 176.44 287.309 176.462L288.814 178.127C289.771 179.187 291.112 179.821 292.54 179.896L294.782 180.01C294.808 180.011 294.821 180.046 294.801 180.064L293.146 181.539C292.06 182.508 291.412 183.872 291.349 185.321L291.25 187.536C291.25 187.565 291.215 187.577 291.196 187.555Z" fill="white"/>
<path d="M11.7486 205.155C-45.4047 -1.95092 166.313 -23.0318 319.102 39.5033C408.248 71.6643 466.792 -28.3539 577.226 11.5621C687.66 51.4781 555.273 177.214 724.25 241.745C893.228 306.276 810.735 595.001 663.045 598.328C515.356 601.654 555.938 650.219 408.248 761.318C260.559 872.418 11.749 718.076 73.6188 555.085C135.489 392.095 73.6181 429.35 11.7486 205.155Z" stroke="white" stroke-opacity="0.1" stroke-width="3.39181"/>
<path d="M329.609 366.335C323.015 346.609 353.902 314.787 378.739 328.368C401.482 340.804 424.642 332.417 439.943 337.961C480.226 352.557 465.408 360.283 483.415 377.618C505.328 398.713 515.784 453.95 465.408 453.95C423.977 453.95 436.374 474.073 405.349 482.989C374.325 491.905 339.142 476.728 339.142 436.77C339.142 421.764 340.593 399.189 329.609 366.335Z" stroke="white" stroke-opacity="0.1" stroke-width="3.39181"/>
<path d="M40.6421 218.8C-11.915 28.7291 183.363 6.67176 324.521 64.7565C407.63 95.1243 462.957 3.43611 564.743 40.2274C668.8 77.8417 547.1 192.849 702.353 253.09C857.962 313.672 783.918 581.171 645.075 584.195C507.046 587.219 545.065 633.198 407.982 735.008C270.898 836.819 41.509 695.128 97.7542 543.322C153.999 393.785 97.8855 425.601 40.6421 218.8Z" stroke="white" stroke-opacity="0.1" stroke-width="3.39181"/>
<path d="M69.5357 232.449C21.5749 59.4126 200.414 36.3788 329.94 90.0131C407.012 118.588 459.122 35.2297 552.26 68.8963C649.939 104.209 538.928 208.488 680.456 264.438C822.695 321.071 757.102 567.345 627.106 570.066C498.736 572.788 534.193 616.181 407.715 708.702C281.238 801.223 71.2691 672.183 121.89 531.562C172.511 395.478 122.153 421.855 69.5357 232.449Z" stroke="white" stroke-opacity="0.1" stroke-width="3.39181"/>
<path d="M98.4256 246.096C55.061 90.094 217.461 66.0836 335.355 115.268C406.391 142.049 455.284 67.021 539.773 97.5629C631.075 130.574 530.752 224.125 658.556 275.784C787.425 328.469 730.281 553.516 609.132 555.935C490.422 558.354 523.317 599.162 407.445 682.393C291.574 765.625 101.026 649.237 146.022 519.8C191.018 397.169 146.417 418.107 98.4256 246.096Z" stroke="white" stroke-opacity="0.1" stroke-width="3.39181"/>
<path d="M127.32 259.745C88.5513 120.777 234.512 95.7904 340.774 140.524C405.773 165.512 451.45 98.8144 527.29 126.232C612.215 156.94 522.58 239.763 636.659 287.132C752.159 335.868 703.465 539.689 591.163 541.806C482.113 543.922 512.445 582.145 407.179 656.087C301.914 730.029 130.786 626.292 170.158 508.04C209.529 398.863 170.685 414.361 127.32 259.745Z" stroke="white" stroke-opacity="0.1" stroke-width="3.39181"/>
<path d="M156.214 274.084C122.042 152.151 251.564 126.188 346.193 166.471C405.156 189.666 447.616 131.298 514.808 155.591C593.355 183.998 514.408 256.093 614.763 299.171C716.893 343.958 676.649 526.553 573.194 528.367C473.803 530.181 501.573 565.818 406.914 630.47C312.254 695.123 160.547 604.038 194.294 496.971C228.041 401.247 194.953 411.306 156.214 274.084Z" stroke="white" stroke-opacity="0.1" stroke-width="3.39181"/>
<path d="M185.109 289.244C155.533 184.345 268.616 157.406 351.613 193.238C404.539 214.64 443.783 164.603 502.326 185.77C574.496 211.875 506.237 273.242 592.867 312.03C681.628 352.868 649.834 514.237 555.225 515.749C465.494 517.261 490.702 550.312 406.649 605.675C322.595 661.038 190.308 582.604 218.431 486.722C246.554 404.451 219.222 409.071 185.109 289.244Z" stroke="white" stroke-opacity="0.1" stroke-width="3.39181"/>
<path d="M214 304.447C189.021 216.583 285.665 188.666 357.03 220.049C403.919 239.658 439.946 197.95 489.841 215.993C555.633 239.796 498.063 290.435 570.969 324.932C646.359 361.822 623.015 501.964 537.253 503.173C457.183 504.383 479.828 534.848 406.38 580.922C332.932 626.996 220.066 561.213 242.565 476.516C265.063 407.698 243.488 406.879 214 304.447Z" stroke="white" stroke-opacity="0.1" stroke-width="3.39181"/>
<path d="M242.897 319.717C222.514 248.887 302.719 219.995 362.451 246.927C403.305 264.742 436.115 231.365 477.361 246.283C536.776 267.784 489.894 307.695 549.075 337.902C611.096 370.842 596.202 489.758 519.286 490.666C448.876 491.573 468.959 519.452 406.117 556.237C343.275 593.021 249.83 539.89 266.703 466.378C283.577 411.013 267.758 404.754 242.897 319.717Z" stroke="white" stroke-opacity="0.1" stroke-width="3.39181"/>
<path d="M271.796 335.082C256.009 281.288 319.774 251.418 367.875 273.9C402.692 289.922 432.285 264.875 464.883 276.668C517.92 295.868 481.727 325.05 527.183 350.967C575.834 379.959 569.391 477.648 501.322 478.253C440.571 478.858 458.092 504.152 405.856 531.647C353.62 559.142 279.595 518.662 290.844 456.334C302.093 414.423 292.031 402.725 271.796 335.082Z" stroke="white" stroke-opacity="0.1" stroke-width="3.39181"/>
<path d="M300.699 350.595C289.508 313.835 336.835 282.989 373.303 301.021C402.083 315.25 428.46 298.532 452.41 307.201C499.069 324.099 473.564 342.553 505.296 364.179C540.577 389.222 542.583 465.686 483.361 465.988C432.27 466.291 447.229 488.999 405.599 507.205C363.969 525.41 309.365 497.582 314.989 446.439C320.614 417.98 316.308 400.844 300.699 350.595Z" stroke="white" stroke-opacity="0.1" stroke-width="3.39181"/>
</svg>
