<svg width="471" height="474" viewBox="0 0 471 474" fill="none" xmlns="http://www.w3.org/2000/svg">
<path d="M88.6793 86.1212C112.726 62.6148 150.947 58.0278 193.421 69.7796C235.881 81.5276 282.488 109.584 323.153 151.184C363.819 192.784 390.809 240.017 401.589 282.733C412.373 325.463 406.919 363.57 382.872 387.076C358.825 410.583 320.604 415.17 278.13 403.419C235.67 391.671 189.062 363.614 148.397 322.014C107.732 280.413 80.7415 233.181 69.9613 190.465C59.1775 147.735 64.6322 109.628 88.6793 86.1212Z" stroke="#9567BC"/>
<path d="M175 31.5537L179.862 44.6921L193 49.5537L179.862 54.4153L175 67.5537L170.138 54.4153L157 49.5537L170.138 44.6921L175 31.5537Z" fill="#4E018F"/>
</svg>
